<svg width="16" height="17" viewBox="0 0 16 17" fill="none" xmlns="http://www.w3.org/2000/svg">
<g clip-path="url(#clip0_146_796)">
<mask id="mask0_146_796" style="mask-type:luminance" maskUnits="userSpaceOnUse" x="0" y="0" width="16" height="17">
<path d="M16 0.445312H0V16.4453H16V0.445312Z" fill="white"/>
</mask>
<g mask="url(#mask0_146_796)">
<path d="M8 11.4454C8.59334 11.4454 9.17336 11.2694 9.66671 10.9398C10.1601 10.6101 10.5446 10.1416 10.7716 9.59336C10.9987 9.04519 11.0581 8.44199 10.9424 7.86004C10.8266 7.2781 10.5409 6.74355 10.1213 6.32399C9.70176 5.90444 9.16721 5.61871 8.58527 5.50296C8.00333 5.3872 7.40013 5.44661 6.85195 5.67368C6.30377 5.90074 5.83524 6.28526 5.50559 6.7786C5.17595 7.27195 5 7.85197 5 8.44531C5 9.24096 5.31607 10.0041 5.87868 10.5667C6.44129 11.1293 7.20435 11.4454 8 11.4454ZM8 6.44531C8.39556 6.44531 8.78224 6.56261 9.11114 6.78237C9.44004 7.00214 9.69638 7.31449 9.84776 7.67995C9.99913 8.0454 10.0387 8.44753 9.96157 8.83549C9.8844 9.22346 9.69392 9.57982 9.41421 9.85953C9.13451 10.1393 8.77814 10.3298 8.39018 10.4069C8.00222 10.4841 7.60009 10.4445 7.23463 10.2931C6.86918 10.1417 6.55682 9.88535 6.33706 9.55645C6.1173 9.22756 6 8.84088 6 8.44531C6 7.91488 6.21071 7.40617 6.58579 7.0311C6.96086 6.65603 7.46957 6.44531 8 6.44531Z" fill="#F05023"/>
<path d="M2.28491 8.85531L1.49991 9.32031C1.17703 9.5119 0.943171 9.82355 0.849471 10.1871C0.755771 10.5507 0.809859 10.9366 0.999906 11.2604L2.07991 13.1304C2.27149 13.4532 2.58315 13.6871 2.9467 13.7808C3.31026 13.8745 3.69612 13.8204 4.01991 13.6304L4.79991 13.1804C4.87525 13.1402 4.95962 13.12 5.04497 13.1217C5.13033 13.1234 5.21383 13.1469 5.28752 13.19C5.3612 13.2332 5.42263 13.2944 5.46593 13.368C5.50924 13.4416 5.53298 13.525 5.53491 13.6104V14.5054C5.53083 14.879 5.67371 15.2394 5.93277 15.5087C6.19183 15.7781 6.54634 15.9349 6.91991 15.9454H9.07991C9.45611 15.944 9.81652 15.794 10.0825 15.528C10.3486 15.262 10.4986 14.9016 10.4999 14.5254V13.6254C10.5021 13.5398 10.5263 13.4563 10.5701 13.3827C10.6139 13.3092 10.6758 13.2481 10.7499 13.2054C10.8259 13.1615 10.9121 13.1384 10.9999 13.1384C11.0877 13.1384 11.1739 13.1615 11.2499 13.2054L12.0249 13.6504C12.3487 13.8404 12.7346 13.8945 13.0981 13.8008C13.4617 13.7071 13.7733 13.4732 13.9649 13.1504L15.0449 11.2804C15.235 10.9566 15.289 10.5707 15.1953 10.2071C15.1016 9.84355 14.8678 9.5319 14.5449 9.34031L13.7449 8.87531C13.6789 8.82923 13.625 8.7679 13.5878 8.69651C13.5505 8.62513 13.5311 8.54582 13.5311 8.46531C13.5311 8.38481 13.5505 8.30549 13.5878 8.23411C13.625 8.16273 13.6789 8.10139 13.7449 8.05531L14.5449 7.59031C14.8678 7.39873 15.1016 7.08707 15.1953 6.72352C15.289 6.35996 15.235 5.97409 15.0449 5.65031L13.9549 3.76031C13.7633 3.43744 13.4517 3.20358 13.0881 3.10988C12.7246 3.01618 12.3387 3.07027 12.0149 3.26031L11.2399 3.70531C11.1633 3.74724 11.077 3.76837 10.9897 3.7666C10.9024 3.76482 10.817 3.7402 10.7422 3.69519C10.6673 3.65018 10.6056 3.58635 10.5631 3.51005C10.5206 3.43375 10.4988 3.34765 10.4999 3.26031V2.36531C10.4986 1.98911 10.3486 1.62869 10.0825 1.36268C9.81652 1.09666 9.45611 0.946633 9.07991 0.945312H6.91991C6.5437 0.946633 6.18329 1.09666 5.91727 1.36268C5.65125 1.62869 5.50122 1.98911 5.49991 2.36531V3.26531C5.49715 3.35024 5.47281 3.43306 5.42916 3.50596C5.38551 3.57886 5.32401 3.63943 5.25045 3.68197C5.1769 3.7245 5.09372 3.74758 5.00876 3.74904C4.92381 3.75051 4.83988 3.73029 4.76491 3.69031L3.99991 3.24031C3.67612 3.05027 3.29026 2.99618 2.9267 3.08988C2.56315 3.18358 2.25149 3.41744 2.05991 3.74031L0.964906 5.63031C0.774859 5.95409 0.720771 6.33996 0.814471 6.70352C0.908171 7.06707 1.14203 7.37873 1.46491 7.57031L2.26491 8.03531C2.33092 8.08139 2.38483 8.14273 2.42206 8.21411C2.45928 8.28549 2.47872 8.36481 2.47872 8.44531C2.47872 8.52582 2.45928 8.60513 2.42206 8.67651C2.38483 8.7479 2.33092 8.80923 2.26491 8.85531H2.28491ZM2.78491 7.16531L1.99991 6.70531C1.90388 6.64889 1.83384 6.55703 1.80486 6.4495C1.77587 6.34197 1.79025 6.22735 1.84491 6.13031L2.90991 4.26031C2.93785 4.21076 2.97545 4.16732 3.0205 4.13257C3.06554 4.09782 3.1171 4.07246 3.17212 4.05801C3.22714 4.04355 3.2845 4.04029 3.34081 4.04842C3.39711 4.05654 3.45122 4.07589 3.49991 4.10531L4.27991 4.55531C4.50642 4.6793 4.7611 4.74271 5.0193 4.73941C5.27751 4.73611 5.53049 4.66621 5.75375 4.53647C5.97702 4.40673 6.16302 4.22156 6.29373 3.99886C6.42445 3.77617 6.49547 3.5235 6.49991 3.26531V2.36531C6.5012 2.25432 6.54587 2.14825 6.62436 2.06976C6.70284 1.99128 6.80892 1.94661 6.91991 1.94531H9.07991C9.19089 1.94661 9.29697 1.99128 9.37545 2.06976C9.45394 2.14825 9.49861 2.25432 9.49991 2.36531V3.26031C9.5016 3.52181 9.57164 3.77833 9.70306 4.00441C9.83448 4.23049 10.0227 4.41829 10.2491 4.54917C10.4755 4.68006 10.7322 4.74948 10.9937 4.75056C11.2552 4.75163 11.5124 4.68433 11.7399 4.55531L12.4999 4.10531C12.5969 4.05066 12.7116 4.03627 12.8191 4.06526C12.9266 4.09425 13.0185 4.16429 13.0749 4.26031L14.1549 6.13031C14.2096 6.22735 14.2239 6.34197 14.195 6.4495C14.166 6.55703 14.0959 6.64889 13.9999 6.70531L13.1999 7.16531C12.9806 7.2993 12.7994 7.48737 12.6737 7.71151C12.548 7.93565 12.482 8.18833 12.482 8.44531C12.482 8.7023 12.548 8.95498 12.6737 9.17911C12.7994 9.40325 12.9806 9.59133 13.1999 9.72531L13.9999 10.1854C14.0959 10.2418 14.166 10.3336 14.195 10.4412C14.2239 10.5487 14.2096 10.6633 14.1549 10.7604L13.0749 12.6304C13.0185 12.7264 12.9266 12.7964 12.8191 12.8254C12.7116 12.8544 12.5969 12.84 12.4999 12.7854L11.7249 12.3354C11.4969 12.2037 11.2382 12.1344 10.9749 12.1344C10.7116 12.1344 10.4529 12.2037 10.2249 12.3354C10.0008 12.4671 9.81561 12.6559 9.68825 12.8825C9.56089 13.1091 9.4959 13.3654 9.49991 13.6254V14.5254C9.49861 14.6363 9.45394 14.7424 9.37545 14.8209C9.29697 14.8994 9.19089 14.9441 9.07991 14.9454H6.91991C6.80892 14.9441 6.70284 14.8994 6.62436 14.8209C6.54587 14.7424 6.5012 14.6363 6.49991 14.5254V13.6304C6.49991 13.2325 6.34187 12.851 6.06057 12.5697C5.77926 12.2884 5.39773 12.1304 4.99991 12.1304C4.7398 12.1297 4.48426 12.1987 4.25991 12.3304L3.49991 12.7854C3.40287 12.84 3.28825 12.8544 3.18072 12.8254C3.07318 12.7964 2.98133 12.7264 2.92491 12.6304L1.82991 10.7604C1.77647 10.6615 1.76436 10.5455 1.79622 10.4378C1.82808 10.33 1.90131 10.2393 1.99991 10.1854L2.79991 9.72531C3.0192 9.59133 3.2004 9.40325 3.32611 9.17911C3.45183 8.95498 3.51786 8.7023 3.51786 8.44531C3.51786 8.18833 3.45183 7.93565 3.32611 7.71151C3.2004 7.48737 3.0192 7.2993 2.79991 7.16531H2.78491Z" fill="#F05023"/>
</g>
</g>
<defs>
<clipPath id="clip0_146_796">
<rect width="16" height="16" fill="white" transform="translate(0 0.389648)"/>
</clipPath>
</defs>
</svg>
