<svg width="51" height="50" viewBox="0 0 51 50" fill="none" xmlns="http://www.w3.org/2000/svg">
<path d="M10.3722 28.6982H6.45098C5.53447 28.6982 4.78906 29.4437 4.78906 30.3599V32.4703C4.78906 33.3866 5.53447 34.1322 6.45098 34.1322H10.3721C11.2886 34.1322 12.034 33.3866 12.034 32.4703V30.3599C12.0341 29.4437 11.2887 28.6982 10.3722 28.6982ZM10.9159 32.4703C10.9159 32.7702 10.6721 33.0141 10.3722 33.0141H6.45098C6.15107 33.0141 5.90723 32.7702 5.90723 32.4703V30.3599C5.90723 30.0602 6.15107 29.8164 6.45098 29.8164H10.3721C10.672 29.8164 10.9158 30.0602 10.9158 30.3599L10.9159 32.4703Z" fill="#F05023"/>
<path d="M18.9033 28.6982H14.9822C14.0657 28.6982 13.3203 29.4437 13.3203 30.3599V32.4703C13.3203 33.3866 14.0657 34.1322 14.9822 34.1322H18.9033C19.8198 34.1322 20.5652 33.3866 20.5652 32.4703V30.3599C20.5652 29.4437 19.8198 28.6982 18.9033 28.6982ZM19.4471 32.4703C19.4471 32.7702 19.2032 33.0141 18.9033 33.0141H14.9822C14.6823 33.0141 14.4385 32.7702 14.4385 32.4703V30.3599C14.4385 30.0602 14.6823 29.8164 14.9822 29.8164H18.9033C19.2032 29.8164 19.4471 30.0602 19.4471 30.3599V32.4703Z" fill="#F05023"/>
<path d="M27.4346 28.6982H23.5135C22.597 28.6982 21.8516 29.4437 21.8516 30.36V32.4703C21.8516 33.3867 22.597 34.1322 23.5135 34.1322H27.4346C28.3511 34.1322 29.0965 33.3867 29.0965 32.4703V30.36C29.0965 29.4437 28.351 28.6982 27.4346 28.6982ZM27.9783 32.4703C27.9783 32.7702 27.7345 33.0141 27.4346 33.0141H23.5135C23.2136 33.0141 22.9697 32.7702 22.9697 32.4703V30.36C22.9697 30.0602 23.2136 29.8164 23.5135 29.8164H27.4346C27.7345 29.8164 27.9783 30.0602 27.9783 30.36V32.4703Z" fill="#F05023"/>
<path d="M10.3722 37.459H6.45098C5.53447 37.459 4.78906 38.2044 4.78906 39.1207V41.2311C4.78906 42.1473 5.53447 42.893 6.45098 42.893H10.3721C11.2886 42.893 12.034 42.1473 12.034 41.2311V39.1207C12.0341 38.2044 11.2887 37.459 10.3722 37.459ZM10.9159 41.2311C10.9159 41.5309 10.6721 41.7748 10.3722 41.7748H6.45098C6.15107 41.7748 5.90723 41.5309 5.90723 41.2311V39.1207C5.90723 38.821 6.15107 38.5772 6.45098 38.5772H10.3721C10.672 38.5772 10.9158 38.821 10.9158 39.1207L10.9159 41.2311Z" fill="#F05023"/>
<path d="M18.9033 37.459H14.9822C14.0657 37.459 13.3203 38.2044 13.3203 39.1207V41.2311C13.3203 42.1473 14.0657 42.893 14.9822 42.893H18.9033C19.8198 42.893 20.5652 42.1473 20.5652 41.2311V39.1207C20.5652 38.2044 19.8198 37.459 18.9033 37.459ZM19.4471 41.2311C19.4471 41.5309 19.2032 41.7748 18.9033 41.7748H14.9822C14.6823 41.7748 14.4385 41.5309 14.4385 41.2311V39.1207C14.4385 38.821 14.6823 38.5772 14.9822 38.5772H18.9033C19.2032 38.5772 19.4471 38.821 19.4471 39.1207V41.2311Z" fill="#F05023"/>
<path d="M27.4346 37.459H23.5135C22.597 37.459 21.8516 38.2044 21.8516 39.1207V41.2311C21.8516 42.1473 22.597 42.893 23.5135 42.893H27.4346C28.3511 42.893 29.0965 42.1473 29.0965 41.2311V39.1207C29.0965 38.2044 28.351 37.459 27.4346 37.459ZM27.9783 41.2311C27.9783 41.5309 27.7345 41.7748 27.4346 41.7748H23.5135C23.2136 41.7748 22.9697 41.5309 22.9697 41.2311V39.1207C22.9697 38.821 23.2136 38.5772 23.5135 38.5772H27.4346C27.7345 38.5772 27.9783 38.821 27.9783 39.1207V41.2311Z" fill="#F05023"/>
<path d="M42.3261 18.4668H35.158C33.9207 18.4668 32.9141 19.4733 32.9141 20.7107C32.9141 21.948 33.9207 22.9546 35.158 22.9546H42.3261C43.5633 22.9546 44.5701 21.9481 44.5701 20.7107C44.5701 19.4734 43.5632 18.4668 42.3261 18.4668ZM42.3261 21.8365H35.158C34.5374 21.8365 34.0321 21.3315 34.0321 20.7107C34.0321 20.0899 34.5374 19.585 35.158 19.585H42.3261C42.9467 19.585 43.4519 20.0899 43.4519 20.7107C43.4519 21.3315 42.9467 21.8365 42.3261 21.8365Z" fill="#F05023"/>
<path d="M42.3261 24.7148H35.158C33.9207 24.7148 32.9141 25.7214 32.9141 26.9588C32.9141 28.1961 33.9207 29.2028 35.158 29.2028H42.3261C43.5633 29.2028 44.5701 28.1962 44.5701 26.9588C44.5701 25.7215 43.5632 24.7148 42.3261 24.7148ZM42.3261 28.0846H35.158C34.5374 28.0846 34.0321 27.5796 34.0321 26.9588C34.0321 26.338 34.5374 25.833 35.158 25.833H42.3261C42.9467 25.833 43.4519 26.338 43.4519 26.9588C43.4519 27.5796 42.9467 28.0846 42.3261 28.0846Z" fill="#F05023"/>
<path d="M42.3261 30.9648H35.158C33.9207 30.9648 32.9141 31.9714 32.9141 33.2088C32.9141 34.4461 33.9207 35.4528 35.158 35.4528H42.3261C43.5633 35.4528 44.5701 34.4462 44.5701 33.2088C44.5701 31.9715 43.5632 30.9648 42.3261 30.9648ZM42.3261 34.3346H35.158C33.6685 34.3346 33.6688 32.083 35.158 32.083H42.3261C42.9467 32.083 43.4519 32.588 43.4519 33.2088C43.4519 33.8296 42.9467 34.3346 42.3261 34.3346Z" fill="#F05023"/>
<path d="M7.32547 23.5972C7.59295 23.5972 7.82957 23.4045 7.87576 23.1317L9.29304 14.7809H15.6059L17.0233 23.1317C17.075 23.4364 17.3665 23.6398 17.668 23.5894C17.9722 23.5377 18.1771 23.2491 18.1255 22.9446C15.8402 9.7289 16.0459 10.0833 15.7306 9.53815C15.4039 8.97123 14.794 8.60156 14.1053 8.60156H10.7926C9.92246 8.60156 9.18487 9.19456 8.97887 10.0266C8.91421 10.2861 6.77996 22.907 6.77362 22.9447C6.71599 23.2847 6.97722 23.5972 7.32547 23.5972ZM9.48287 13.6629C10.0891 10.0916 10.0422 10.3341 10.0759 10.2343C10.179 9.93115 10.464 9.72115 10.7946 9.72115H14.1043C14.3831 9.72115 14.63 9.87006 14.7625 10.0984C14.8841 10.3092 14.81 10.1947 15.4157 13.6629H9.48287Z" fill="#F05023"/>
<path d="M11.9052 8.09748C12.1891 7.9757 12.3202 7.64689 12.1982 7.3632C11.8517 6.55705 12.7582 5.58566 13.6399 5.4176C14.6681 5.22121 15.7698 5.62921 16.8374 6.02306C18.0098 6.39992 19.4933 7.04357 21.0573 6.46642C21.9014 6.15451 22.5897 5.36994 22.8103 4.4676C22.9854 3.75343 22.8277 3.05968 22.3782 2.56418C22.1701 2.33536 21.8167 2.31867 21.5884 2.5258C21.3598 2.73322 21.3423 3.08674 21.5498 3.31545C21.8047 3.59621 21.7853 3.95236 21.7246 4.20177C21.5935 4.73664 21.16 5.23654 20.6701 5.4175C19.5265 5.83947 18.2635 5.32902 17.2247 4.97414C16.0704 4.54826 14.7627 4.06456 13.4302 4.31916C11.8578 4.61926 10.5237 6.29786 11.1711 7.8048C11.2932 8.08879 11.6225 8.21945 11.9052 8.09748Z" fill="#0A175C"/>
<path d="M25.676 4.56426C29.3879 3.08828 33.6071 4.90625 35.0837 8.61726C35.1985 8.90626 35.526 9.04368 35.81 8.93001C36.0967 8.81593 36.2369 8.49084 36.1226 8.20381C34.4177 3.91963 29.5463 1.82041 25.2626 3.52539C24.9759 3.63945 24.8357 3.96455 24.95 4.25157C25.0638 4.53877 25.3896 4.6791 25.676 4.56426Z" fill="#0A175C"/>
<path d="M26.3173 6.18384C26.0305 6.29791 25.8904 6.623 26.0047 6.90982C26.1186 7.19683 26.4432 7.33765 26.7308 7.22262C28.9752 6.33013 31.5298 7.42935 32.4231 9.67492C32.5377 9.964 32.8651 10.1016 33.1492 9.98775C33.4361 9.87367 33.5762 9.54858 33.462 9.26175C32.3412 6.44351 29.1375 5.06226 26.3173 6.18384Z" fill="#0A175C"/>
<path d="M38.8889 10.7867C39.135 10.9741 39.4862 10.9248 39.6723 10.6798L41.5002 8.27468C41.6032 8.13913 41.6388 7.96384 41.5969 7.7988C41.5551 7.63376 41.4401 7.49665 41.2847 7.42683L40.2313 6.95163L41.3691 5.12096C41.5322 4.85876 41.4518 4.51403 41.1898 4.35095C40.928 4.18805 40.5826 4.26814 40.4199 4.53054L38.9447 6.90349C38.8596 7.0403 38.8377 7.2072 38.8847 7.36159C38.9316 7.5157 39.0427 7.64206 39.1896 7.70827L40.1848 8.1572L38.782 10.0031C38.5952 10.2491 38.6428 10.5998 38.8889 10.7867Z" fill="#0A175C"/>
<path d="M21.5921 12.6331C21.5219 12.3326 21.2212 12.1464 20.9205 12.2156C20.6198 12.2858 20.4328 12.5865 20.5031 12.8872L21.1378 15.6081C21.1745 15.7649 21.2769 15.8985 21.4191 15.9744C21.5614 16.0504 21.73 16.0608 21.88 16.0039L22.9016 15.6178L23.2146 17.915C23.2528 18.1953 23.4928 18.3985 23.7679 18.3985C23.793 18.3985 23.8185 18.3968 23.844 18.3934C24.1501 18.3518 24.3645 18.0699 24.3226 17.7639L23.9146 14.7708C23.8916 14.602 23.793 14.453 23.6466 14.3659C23.5004 14.2791 23.3216 14.2634 23.163 14.3235L22.0816 14.7324L21.5921 12.6331Z" fill="#0A175C"/>
<path d="M48.3179 46.5011H46.8085V11.7193C46.8085 10.4935 45.5396 9.66957 44.415 10.1782L31.6317 16.0088C31.0315 16.2867 30.6438 16.8912 30.6438 17.5487V24.7156H4.70899C3.28223 24.7156 2.12109 25.8765 2.12109 27.3032V47.0587C2.12109 47.3675 2.37149 47.6178 2.68018 47.6178C6.37842 47.6179 45.8728 47.6191 48.3179 47.6192C48.6266 47.6192 48.877 47.3691 48.877 47.0602C48.877 46.7513 48.6266 46.5011 48.3179 46.5011ZM3.23926 27.3033C3.23926 26.493 3.89844 25.8338 4.70899 25.8338H30.6438C30.6447 50.6587 30.6446 45.8763 30.6446 46.4997H3.23926V27.3033ZM35.7316 46.4996V40.8571C35.7316 39.2059 37.075 37.8626 38.7264 37.8626C40.3773 37.8626 41.7208 39.2059 41.7208 40.8571V46.4996H35.7316ZM42.839 46.5011V40.8571C42.839 38.5892 40.994 36.7445 38.7264 36.7445C36.4584 36.7445 34.6134 38.5892 34.6134 40.8571V46.5011C34.5414 46.5011 31.5959 46.5011 31.7627 46.5011C31.7626 42.9786 31.7622 26.3016 31.762 17.5487C31.762 17.3252 31.8952 17.119 32.0983 17.0249L44.8772 11.1964C45.2626 11.0227 45.6903 11.3067 45.6903 11.7195V46.5011L42.839 46.5011Z" fill="#F05023"/>
</svg>
