<svg width="61" height="61" viewBox="0 0 61 61" fill="none" xmlns="http://www.w3.org/2000/svg">
<path d="M56.9486 47.2456H55.5129L51.4339 21.7642C52.4162 21.4693 53.1383 20.5712 53.1383 19.4985C53.1383 18.1846 52.0667 17.1154 50.7495 17.1154H39.976C39.5637 17.1154 39.2295 17.4496 39.2295 17.8619C39.2295 18.2742 39.5637 18.6084 39.976 18.6084H50.7495C51.2434 18.6084 51.6454 19.0079 51.6454 19.4984C51.6454 19.986 51.2435 20.3825 50.7495 20.3825H50.5763H40.5017C40.0894 20.3825 39.7553 20.7166 39.7553 21.1289C39.7553 21.5412 40.0894 21.8754 40.5017 21.8754H49.9397L54.0009 47.2442C52.985 47.2443 57.9901 47.2438 42.3914 47.2452L37.2979 15.2751C38.5149 14.9818 39.4248 13.8907 39.4248 12.5849C39.4248 11.0552 38.1803 9.81055 36.6508 9.81055H11.8567C10.3273 9.81055 9.08277 11.0551 9.08277 12.5849C9.08277 13.8907 9.99281 14.9818 11.2097 15.2751L6.11628 47.2456H4.68133C3.20292 47.2456 2 48.4482 2 49.9266C2 51.405 3.2028 52.6082 4.68133 52.6082H56.9486C58.4271 52.6082 59.63 51.405 59.63 49.9266C59.6298 48.4482 58.4271 47.2456 56.9486 47.2456ZM10.5758 12.5852C10.5758 11.879 11.1505 11.304 11.8567 11.304H36.6508C37.357 11.304 37.9317 11.879 37.9317 12.5852C37.9317 13.2914 37.357 13.8665 36.6508 13.8665C28.1423 13.8665 20.4672 13.8665 11.8567 13.8665C11.1505 13.8665 10.5758 13.2914 10.5758 12.5852ZM12.708 15.3595H35.7997L40.8797 47.2455H7.628L12.708 15.3595ZM56.9486 51.1151H4.68133C4.02615 51.1151 3.49305 50.5821 3.49305 49.9266C3.49305 49.2717 4.02603 48.7386 4.68133 48.7386H56.9486C57.6038 48.7386 58.1369 49.2718 58.1369 49.9266C58.1369 50.5821 57.6038 51.1151 56.9486 51.1151Z" fill="#F05023"/>
<path d="M23.8389 22.8779C23.268 23.6494 18.2617 30.5073 18.2617 33.6629C18.2617 37.0671 21.0312 39.8367 24.4349 39.8367C27.8435 39.8367 30.6163 37.0671 30.6163 33.6629C30.6163 30.5072 25.61 23.6493 25.0392 22.8779C24.7575 22.4964 24.1206 22.4964 23.8389 22.8779ZM24.4349 38.3438C21.8542 38.3438 19.7547 36.2442 19.7547 33.6631C19.7547 31.6685 22.7314 27.025 24.4391 24.5989C26.1468 27.0245 29.1234 31.6667 29.1234 33.6631C29.1233 36.2442 27.02 38.3438 24.4349 38.3438Z" fill="#222222"/>
</svg>
