<svg width="24" height="25" viewBox="0 0 24 25" fill="none" xmlns="http://www.w3.org/2000/svg">
<path d="M23.878 10.8738C23.8379 10.5941 23.6342 10.3656 23.361 10.2938L22.1659 9.97927C21.92 9.01889 21.5402 8.10356 21.033 7.24861L21.6566 6.17939C21.7988 5.93536 21.7813 5.62992 21.612 5.4038C21.2711 4.94827 20.892 4.51106 20.4853 4.10419C20.0795 3.69825 19.6422 3.31913 19.1856 2.97722C18.9595 2.80791 18.654 2.79033 18.4099 2.93278L17.3408 3.55641C16.4859 3.04913 15.5706 2.66939 14.6102 2.42344L14.2958 1.22846C14.2238 0.955223 13.9954 0.751551 13.7157 0.711379C12.5876 0.549332 11.4123 0.549332 10.2842 0.711379C10.0045 0.751504 9.77611 0.955176 9.7042 1.22846L9.38972 2.42344C8.42939 2.66934 7.51416 3.04908 6.65911 3.55641L5.59008 2.93278C5.34605 2.79042 5.04047 2.808 4.81434 2.97722C4.35783 3.31908 3.92053 3.6982 3.51464 4.10419C3.10795 4.51102 2.72888 4.94822 2.38791 5.40375C2.21864 5.62988 2.20111 5.93531 2.34338 6.17934L2.96691 7.24856C2.45967 8.10361 2.07994 9.01889 1.83403 9.97922L0.639 10.2937C0.365719 10.3656 0.162047 10.5941 0.121969 10.8738C0.0410625 11.4381 0 12.0153 0 12.5895C0 13.1637 0.0410625 13.7409 0.122016 14.3052C0.162094 14.5849 0.365766 14.8134 0.639047 14.8853L1.83408 15.1998C2.08003 16.1602 2.45977 17.0755 2.96695 17.9304L2.34342 18.9997C2.20116 19.2437 2.21869 19.5491 2.38795 19.7753C2.72892 20.2308 3.108 20.668 3.51473 21.0749C3.92053 21.4808 4.35783 21.8599 4.81439 22.2018C5.04052 22.3711 5.346 22.3887 5.59012 22.2463L6.65916 21.6226C7.51411 22.1299 8.42944 22.5097 9.38977 22.7556L9.70425 23.9506C9.77616 24.2238 10.0046 24.4275 10.2843 24.4676C10.8483 24.5487 11.4256 24.5898 12 24.5898C12.5744 24.5898 13.1517 24.5487 13.7158 24.4677C13.9955 24.4276 14.2239 24.2239 14.2958 23.9506L14.6103 22.7557C15.5706 22.5098 16.4858 22.13 17.3409 21.6227L18.4099 22.2464C18.654 22.3888 18.9596 22.3712 19.1857 22.2019C19.6422 21.8601 20.0795 21.4809 20.4854 21.075C20.892 20.6681 21.2711 20.2309 21.6121 19.7754C21.7814 19.5493 21.7989 19.2438 21.6566 18.9998L21.0331 17.9306C21.5403 17.0755 21.9201 16.1603 22.166 15.1999L23.361 14.8854C23.6343 14.8136 23.838 14.585 23.878 14.3053C23.959 13.741 24 13.1638 24 12.5896C24 12.0155 23.9589 11.4381 23.878 10.8738ZM12 20.071C7.87481 20.071 4.51875 16.715 4.51875 12.5898C4.51875 8.46464 7.87481 5.10858 12 5.10858C16.1252 5.10858 19.4813 8.46464 19.4813 12.5898C19.4813 16.715 16.1252 20.071 12 20.071Z" fill="#F05023"/>
<path d="M12.0008 6.51465C8.651 6.51465 5.92578 9.23987 5.92578 12.5897C5.92578 15.9394 8.651 18.6647 12.0008 18.6647C15.3506 18.6647 18.0758 15.9394 18.0758 12.5897C18.0758 9.23987 15.3506 6.51465 12.0008 6.51465ZM15.5105 11.5806L11.7448 15.3462C11.613 15.4781 11.4342 15.5522 11.2477 15.5522C11.0612 15.5522 10.8823 15.4781 10.7505 15.3462L8.86766 13.4634C8.59306 13.1889 8.59306 12.7436 8.86766 12.469C9.1422 12.1945 9.58742 12.1945 9.86202 12.469L11.2477 13.8547L14.5161 10.5862C14.7907 10.3117 15.2359 10.3117 15.5105 10.5862C15.785 10.8608 15.785 11.306 15.5105 11.5806Z" fill="#F05023"/>
</svg>
