<svg width="51" height="51" viewBox="0 0 51 51" fill="none" xmlns="http://www.w3.org/2000/svg">
<mask id="mask0_180_651" style="mask-type:luminance" maskUnits="userSpaceOnUse" x="0" y="1" width="51" height="50">
<path d="M50.0905 1.22266H0.910156V50.403H50.0905V1.22266Z" fill="white"/>
</mask>
<g mask="url(#mask0_180_651)">
<path d="M22.0526 12.4503C21.1276 12.4503 20.3489 13.1749 20.2956 14.1103C20.2956 14.1108 20.2955 14.1114 20.2954 14.112L19.962 19.9646C19.9425 20.3077 20.2047 20.6016 20.5476 20.6213C20.8951 20.6427 21.1846 20.3787 21.2042 20.0356L21.3401 17.6503H26.2411L26.7799 27.0974C26.7988 27.4284 27.0729 27.684 27.4005 27.684C27.4124 27.684 27.4243 27.6837 27.4364 27.6831C27.7793 27.6634 28.0415 27.3696 28.022 27.0264C27.1952 12.4787 27.3798 15.7265 27.2879 14.1101C27.236 13.1977 26.479 12.4502 25.531 12.4502L22.0526 12.4503ZM21.4115 16.4062L21.5378 14.1827C21.5547 13.8963 21.8054 13.6956 22.0513 13.6948H25.5299C25.8042 13.6948 26.0298 13.9072 26.0433 14.183L26.1701 16.4062H21.4115Z" fill="#F05023"/>
<path d="M40.7584 39.6047H43.1468C43.8797 39.6047 44.4758 39.0086 44.4758 38.276V35.8876C44.4758 35.1547 43.8797 34.5586 43.1468 34.5586H40.7584C40.0258 34.5586 39.4297 35.1547 39.4297 35.8876V38.276C39.4297 39.0086 40.0258 39.6047 40.7584 39.6047ZM40.6739 35.8875C40.6739 35.8408 40.7118 35.8027 40.7584 35.8027H43.1468C43.1935 35.8027 43.2317 35.8408 43.2317 35.8875V38.2759C43.2317 38.3226 43.1935 38.3604 43.1468 38.3604H40.7584C40.7117 38.3604 40.6739 38.3225 40.6739 38.2759V35.8875Z" fill="#0A175C"/>
<path d="M33.024 39.6047H35.4124C36.1454 39.6047 36.7415 39.0086 36.7415 38.276V35.8876C36.7415 35.1547 36.1454 34.5586 35.4124 34.5586H33.024C32.2915 34.5586 31.6953 35.1547 31.6953 35.8876V38.276C31.6953 39.0086 32.2915 39.6047 33.024 39.6047ZM32.9395 35.8875C32.9395 35.8408 32.9774 35.8027 33.024 35.8027H35.4124C35.4592 35.8027 35.4973 35.8408 35.4973 35.8875V38.2759C35.4973 38.3226 35.4592 38.3604 35.4124 38.3604H33.024C32.9774 38.3604 32.9395 38.3225 32.9395 38.2759V35.8875Z" fill="#0A175C"/>
<path d="M27.6782 34.5586H25.29C24.5571 34.5586 23.9609 35.1547 23.9609 35.8876V38.276C23.9609 39.0086 24.5571 39.6047 25.29 39.6047H27.6782C28.4111 39.6047 29.0072 39.0086 29.0072 38.276V35.8876C29.0072 35.1546 28.4111 34.5586 27.6782 34.5586ZM27.7631 38.276C27.7631 38.3227 27.7249 38.3606 27.6782 38.3606H25.29C25.2433 38.3606 25.2052 38.3226 25.2052 38.276V35.8876C25.2052 35.8409 25.2433 35.8028 25.29 35.8028H27.6782C27.7249 35.8028 27.7631 35.8409 27.7631 35.8876V38.276Z" fill="#0A175C"/>
<path d="M23.2376 23.9895C23.2376 22.8187 22.2851 21.8662 21.1144 21.8662H7.54416C6.37334 21.8662 5.42085 22.8188 5.42085 23.9895V46.3548H4.27088C3.31369 46.3548 2.53516 47.1333 2.53516 48.0904C2.53516 49.0475 3.31379 49.8261 4.27088 49.8261L47.1217 49.8258C48.0786 49.8258 48.8572 49.0473 48.8572 48.0903C48.8572 47.1333 48.0787 46.3547 47.1217 46.3547H46.4396V29.2155C46.4396 28.9006 46.2873 28.6024 46.0324 28.4174C45.7774 28.2328 45.4458 28.1818 45.1476 28.2792L38.7057 30.3906V29.2155C38.7057 28.9006 38.5535 28.6024 38.2986 28.4178C38.0432 28.2329 37.7123 28.181 37.4136 28.2792L30.9717 30.3904V29.2155C30.9717 28.9006 30.8195 28.6024 30.5647 28.4178C30.3093 28.2329 29.9784 28.181 29.6796 28.2792L23.2376 30.3906V23.9895ZM6.66496 23.9895C6.66496 23.5047 7.05936 23.1103 7.54416 23.1103H21.1144C21.5992 23.1103 21.9935 23.5047 21.9935 23.9895V46.3548H18.2941V42.6138C18.2941 41.5374 17.4184 40.6616 16.3418 40.6616H12.3167C11.2403 40.6616 10.3645 41.5374 10.3645 42.6138V46.3548H6.66496V23.9895ZM17.0499 46.3548H11.6086V42.6138C11.6086 42.2234 11.9262 41.9057 12.3167 41.9057H16.3418C16.7323 41.9057 17.05 42.2233 17.05 42.6138L17.0499 46.3548ZM47.6131 48.0904C47.6131 48.3614 47.3927 48.5817 47.1218 48.5817L4.27098 48.5819C4 48.5819 3.77936 48.3614 3.77936 48.0904C3.77936 47.8194 4 47.5991 4.27098 47.5991H47.1218C47.3927 47.5991 47.6131 47.8194 47.6131 48.0904ZM45.1955 29.5729V46.3548H38.7057V31.6997L45.1955 29.5729ZM37.4614 29.5729V46.3548H30.9716V31.6997L37.4614 29.5729ZM23.2379 31.6997L29.7275 29.5729V46.3548H23.2379V31.6997Z" fill="#F05023"/>
<path d="M9.96742 28.0534H18.698C19.7184 28.0534 20.5484 27.2233 20.5484 26.2029C20.5484 25.1826 19.7182 24.3525 18.698 24.3525H9.96742C8.94729 24.3525 8.11719 25.1827 8.11719 26.2029C8.11719 27.2233 8.9472 28.0534 9.96742 28.0534ZM9.96742 25.5966H18.698C19.0323 25.5966 19.3043 25.8686 19.3043 26.2029C19.3043 26.5374 19.0323 26.8093 18.698 26.8093H9.96742C9.63332 26.8093 9.36135 26.5374 9.36135 26.2029C9.36135 25.8686 9.63324 25.5966 9.96742 25.5966Z" fill="#F05023"/>
<path d="M9.56067 33.8986H12.0045C12.8025 33.8986 13.4518 33.2492 13.4518 32.4509V30.7483C13.4518 29.95 12.8025 29.3008 12.0045 29.3008H9.56067C8.76261 29.3008 8.11328 29.95 8.11328 30.7483V32.4509C8.11337 33.2492 8.76261 33.8986 9.56067 33.8986ZM9.35747 30.7482C9.35747 30.6359 9.44862 30.5449 9.56067 30.5449H12.0045C12.1165 30.5449 12.2076 30.636 12.2076 30.7482V32.4509C12.2076 32.5632 12.1165 32.6542 12.0045 32.6542H9.56067C9.44862 32.6542 9.35747 32.5631 9.35747 32.4509V30.7482Z" fill="#F05023"/>
<path d="M19.0981 29.3008H16.6544C15.8564 29.3008 15.207 29.9501 15.207 30.7483V32.451C15.207 33.2492 15.8564 33.8986 16.6544 33.8986H19.0981C19.8963 33.8986 20.5456 33.2492 20.5456 32.451V30.7483C20.5456 29.9501 19.8963 29.3008 19.0981 29.3008ZM19.3015 32.4511C19.3015 32.5634 19.2103 32.6545 19.0981 32.6545H16.6544C16.5424 32.6545 16.4513 32.5633 16.4513 32.4511V30.7484C16.4513 30.6362 16.5424 30.5451 16.6544 30.5451H19.0981C19.2104 30.5451 19.3015 30.6363 19.3015 30.7484V32.4511Z" fill="#F05023"/>
<path d="M12.0046 39.757C12.8026 39.757 13.4519 39.1076 13.4519 38.3094V36.6067C13.4519 35.8085 12.8026 35.1592 12.0046 35.1592H9.56067C8.76261 35.1592 8.11328 35.8085 8.11328 36.6067V38.3094C8.11328 39.1076 8.76261 39.757 9.56067 39.757H12.0046ZM9.35747 38.3094V36.6067C9.35747 36.4944 9.44862 36.4034 9.56067 36.4034H12.0045C12.1165 36.4034 12.2076 36.4945 12.2076 36.6067V38.3094C12.2076 38.4217 12.1165 38.5128 12.0045 38.5128H9.56067C9.44862 38.5128 9.35747 38.4217 9.35747 38.3094Z" fill="#F05023"/>
<path d="M19.0981 35.1592H16.6544C15.8564 35.1592 15.207 35.8084 15.207 36.6067V38.3093C15.207 39.1076 15.8564 39.757 16.6544 39.757H19.0981C19.8963 39.757 20.5456 39.1076 20.5456 38.3093V36.6067C20.5456 35.8084 19.8963 35.1592 19.0981 35.1592ZM19.3015 38.3095C19.3015 38.4218 19.2103 38.5128 19.0981 38.5128H16.6544C16.5424 38.5128 16.4513 38.4216 16.4513 38.3095V36.6068C16.4513 36.4945 16.5424 36.4034 16.6544 36.4034H19.0981C19.2104 36.4034 19.3015 36.4946 19.3015 36.6068V38.3095Z" fill="#F05023"/>
<path d="M13.2266 8.91787C13.2266 9.10885 13.2568 9.29279 13.3121 9.46557H11.8427C10.8518 9.46557 10.0508 10.2658 10.0508 11.2575C10.0508 12.2455 10.8546 13.0494 11.8427 13.0494H18.2768C19.2625 13.0494 20.0643 12.2455 20.0643 11.2575C20.0643 11.0666 20.0345 10.8826 19.9791 10.7098H21.4482C22.4363 10.7098 23.2401 9.9059 23.2401 8.91787C23.2401 7.92986 22.4363 7.12598 21.4482 7.12598H15.0183C14.0278 7.12598 13.2266 7.92631 13.2266 8.91787ZM21.9961 8.91787C21.9961 9.22 21.7504 9.46557 21.4484 9.46557H18.2769C17.9333 9.46557 17.6549 9.7441 17.6549 10.0876C17.6549 10.4312 17.9333 10.7097 18.2769 10.7097C18.5765 10.7097 18.8203 10.9554 18.8203 11.2574C18.8203 11.5595 18.5766 11.8051 18.2769 11.8051H11.8427C11.5407 11.8051 11.295 11.5594 11.295 11.2574C11.295 10.9576 11.5347 10.7097 11.8427 10.7097H15.0186C15.3622 10.7097 15.6406 10.4312 15.6406 10.0876C15.6406 9.7441 15.3622 9.46557 15.0186 9.46557C14.7164 9.46557 14.4709 9.21992 14.4709 8.91787C14.4709 8.61358 14.7154 8.37018 15.0186 8.37018H21.4484C21.7504 8.37018 21.9961 8.6158 21.9961 8.91787Z" fill="#F05023"/>
<path d="M3.93254 7.72413H10.3667C11.3523 7.72413 12.1542 6.92024 12.1542 5.93222C12.1542 5.74126 12.1243 5.55731 12.0689 5.38451H13.538C14.5264 5.38451 15.3302 4.58063 15.3302 3.5926C15.3302 2.60458 14.5265 1.80078 13.5382 1.80078H7.10842C6.11761 1.80078 5.31651 2.60112 5.31651 3.59269C5.31651 3.78365 5.34667 3.9676 5.40199 4.1404H3.93254C2.94519 4.1404 2.14062 4.93718 2.14062 5.93231C2.14072 6.92034 2.94452 7.72413 3.93254 7.72413ZM3.93254 5.38451H7.10832C7.45191 5.38451 7.73038 5.10604 7.73038 4.76245C7.73038 4.41886 7.45191 4.1404 7.10832 4.1404C6.80623 4.1404 6.56062 3.89469 6.56062 3.59269C6.56062 3.28839 6.80517 3.04499 7.10832 3.04499H13.5382C13.8402 3.04499 14.0862 3.2907 14.0862 3.59269C14.0862 3.89469 13.8402 4.1404 13.5382 4.1404H10.3668C10.0232 4.1404 9.74476 4.41886 9.74476 4.76245C9.74476 5.10604 10.0232 5.38451 10.3668 5.38451C10.6664 5.38451 10.9102 5.63022 10.9102 5.93222C10.9102 6.23422 10.6665 6.47993 10.3668 6.47993H3.93254C3.63044 6.47993 3.38483 6.23422 3.38483 5.93222C3.38483 5.63637 3.62017 5.38451 3.93254 5.38451Z" fill="#F05023"/>
</g>
</svg>
