<svg width="50" height="51" viewBox="0 0 50 51" fill="none" xmlns="http://www.w3.org/2000/svg">
<path d="M9.38283 27.7055C9.7798 27.7055 10.1015 27.3838 10.1015 26.9868V17.701C10.1015 16.7086 10.5957 15.7912 11.4257 15.2455C12.0287 14.846 12.5277 14.3025 12.8687 13.6726C13.2119 13.0373 13.3934 12.32 13.3934 11.5988V10.5496H15.7654V11.5918C15.7654 13.0728 16.4992 14.4394 17.7299 15.2482C18.5188 15.7631 19.0568 16.666 19.0568 17.701V26.9726C19.0568 27.3695 19.3786 27.6913 19.7755 27.6913C20.1724 27.6913 20.4941 27.3695 20.4941 26.9726V17.701C20.4941 16.1884 19.7177 14.8284 18.5173 14.046C17.6941 13.5049 17.2028 12.5875 17.2028 11.5919C17.2027 11.5192 17.1968 7.77121 17.1972 8.00808C17.1972 7.00267 16.3791 6.18457 15.3737 6.18457H13.7782C12.7725 6.18457 11.9545 7.00257 11.9545 8.00808C11.9545 8.08079 11.956 11.8358 11.9559 11.5989C11.9559 12.0826 11.8341 12.5633 11.6042 12.9891C11.3755 13.4116 11.0389 13.7776 10.6339 14.046C9.40037 14.8568 8.66406 16.2229 8.66406 17.701V26.9868C8.66406 27.3838 8.98595 27.7055 9.38283 27.7055ZM13.392 8.00799C13.392 7.79493 13.5654 7.62194 13.7785 7.62194H15.3738C15.5869 7.62194 15.7599 7.79493 15.7599 8.00799V9.11029H13.3921L13.392 8.00799Z" fill="#F05023"/>
<path d="M24.1642 27.6914C24.5611 27.6914 24.8829 27.3696 24.8829 26.9727V17.7011C24.8829 16.7087 25.377 15.7913 26.2066 15.2455C26.8095 14.8465 27.3085 14.303 27.6504 13.6727C27.9936 13.0371 28.1747 12.3198 28.1747 11.5989V10.5496H30.5464V11.5919C30.5464 13.0753 31.2833 14.4423 32.5144 15.2459C32.9222 15.5159 33.2577 15.8829 33.4887 16.3139C33.7174 16.7322 33.8382 17.2119 33.8382 17.7011V26.9727C33.8382 27.3696 34.1597 27.6914 34.5569 27.6914C34.9542 27.6914 35.2756 27.3696 35.2756 26.9727V17.7011C35.2756 16.9712 35.0938 16.2532 34.7526 15.6299C34.4129 14.9954 33.9132 14.4479 33.3039 14.0447C32.4771 13.505 31.9837 12.5879 31.9837 11.5919C31.9835 11.5192 31.9792 7.77121 31.9794 8.00808C31.9794 7.00267 31.1617 6.18457 30.1559 6.18457H28.5607C27.5549 6.18457 26.7372 7.00257 26.7372 8.00808C26.7372 8.14477 26.7372 11.7268 26.7372 11.5989C26.7372 12.0826 26.6158 12.5633 26.3862 12.9887C26.1567 13.4116 25.8206 13.7776 25.4148 14.046C24.1815 14.8568 23.4453 16.2232 23.4453 17.701V26.9726C23.4454 27.3695 23.7673 27.6914 24.1642 27.6914ZM28.1747 8.00808C28.1747 7.79503 28.348 7.62204 28.5607 7.62204H30.1561C30.3688 7.62204 30.5421 7.79503 30.5421 8.00808V9.11037H28.1747V8.00808Z" fill="#F05023"/>
<path d="M9.85247 44.4511H40.5293C44.7539 44.4511 48.1904 41.0143 48.1904 36.79C48.1904 32.5657 44.754 29.1289 40.5293 29.1289H9.85247C5.62818 29.1289 2.19141 32.5657 2.19141 36.79C2.19141 41.0143 5.62827 44.4511 9.85247 44.4511ZM9.85247 30.5664H40.5293C43.9607 30.5664 46.7529 33.3582 46.7529 36.79C46.7529 40.2219 43.9609 43.0137 40.5293 43.0137H9.85247C6.42063 43.0137 3.62888 40.2219 3.62888 36.79C3.62888 33.3582 6.42063 30.5664 9.85247 30.5664Z" fill="#F05023"/>
<path d="M11.3554 38.5656C11.7523 38.5656 12.0741 38.2438 12.0741 37.8469V35.7343C12.0741 35.3373 11.7523 35.0156 11.3554 35.0156C10.9584 35.0156 10.6367 35.3373 10.6367 35.7343V37.8469C10.6366 38.2437 10.9584 38.5656 11.3554 38.5656Z" fill="#0A175C"/>
<path d="M18.2734 38.5656C18.6703 38.5656 18.9921 38.2438 18.9921 37.8469V35.7343C18.9921 35.3373 18.6703 35.0156 18.2734 35.0156C17.8765 35.0156 17.5547 35.3373 17.5547 35.7343V37.8469C17.5546 38.2437 17.8764 38.5656 18.2734 38.5656Z" fill="#0A175C"/>
<path d="M25.1913 38.5656C25.5886 38.5656 25.91 38.2438 25.91 37.8469V35.7343C25.91 35.3373 25.5886 35.0156 25.1913 35.0156C24.7945 35.0156 24.4727 35.3373 24.4727 35.7343V37.8469C24.4726 38.2437 24.7945 38.5656 25.1913 38.5656Z" fill="#0A175C"/>
<path d="M32.1093 38.5656C32.5066 38.5656 32.828 38.2438 32.828 37.8469V35.7343C32.828 35.3373 32.5065 35.0156 32.1093 35.0156C31.712 35.0156 31.3906 35.3373 31.3906 35.7343V37.8469C31.3906 38.2437 31.7122 38.5656 32.1093 38.5656Z" fill="#0A175C"/>
<path d="M39.0312 38.5656C39.4284 38.5656 39.7499 38.2438 39.7499 37.8469V35.7343C39.7499 35.3373 39.4283 35.0156 39.0312 35.0156C38.6339 35.0156 38.3125 35.3373 38.3125 35.7343V37.8469C38.3125 38.2437 38.6339 38.5656 39.0312 38.5656Z" fill="#0A175C"/>
</svg>
