<svg width="50" height="50" viewBox="0 0 50 50" fill="none" xmlns="http://www.w3.org/2000/svg">
<path d="M40.2643 45.9715C40.4456 45.9715 40.6277 45.905 40.7706 45.7714C41.0682 45.4919 41.0834 45.0239 40.8038 44.7255C34.0711 37.5485 32.5347 28.8018 31.9193 21.1914C31.798 19.7208 30.5938 18.6113 29.1182 18.6113H20.6561C19.1992 18.6113 17.972 19.7467 17.8622 21.1921C17.2468 28.8025 15.7089 37.5499 8.9704 44.7253C8.69007 45.023 8.70524 45.4911 9.00286 45.7706C9.3004 46.0508 9.76925 46.0363 10.048 45.7381C17.1001 38.2295 18.7007 29.1767 19.3371 21.3076C19.3891 20.6251 19.9684 20.0906 20.6561 20.0906H29.118C29.8173 20.0906 30.3871 20.6157 30.4442 21.312C31.0806 29.1759 32.6806 38.2281 39.7246 45.7381C39.8706 45.8928 40.0671 45.9715 40.2643 45.9715Z" fill="#F05023"/>
<path d="M1.84509 48.9333H47.9343C48.3432 48.9333 48.674 48.6025 48.674 48.1937C48.674 47.7848 48.3432 47.4541 47.9343 47.4541H1.84509C1.43628 47.4541 1.10547 47.7848 1.10547 48.1937C1.10537 48.6025 1.43628 48.9333 1.84509 48.9333Z" fill="#F05023"/>
<path d="M43.8764 8.29112C43.8764 4.09782 39.1149 1.69979 35.7336 4.11174C33.3317 -0.141107 26.894 1.32479 26.5132 6.13131C23.7072 7.20223 22.482 10.4281 23.6875 13.0649C22.656 13.6442 21.9727 14.7529 21.9727 15.9758C21.9727 16.3846 22.3035 16.7155 22.7123 16.7155C23.1211 16.7155 23.4519 16.3846 23.4519 15.9758C23.4519 15.1119 24.0651 14.3499 24.911 14.1642C25.1523 14.1114 25.3516 13.941 25.4413 13.7106C25.5308 13.4802 25.4997 13.2202 25.3581 13.0172C23.9172 10.9614 24.949 8.0431 27.4312 7.38742C27.7794 7.29569 28.0091 6.95479 27.9787 6.5965L27.9773 6.52206C27.9773 2.56266 33.6339 1.74571 34.7462 5.552C34.8213 5.80991 35.03 6.00634 35.2916 6.0656C35.5531 6.12698 35.8262 6.03957 36.0053 5.84026C38.235 3.36683 42.3971 4.93407 42.3971 8.29112C42.3971 11.0882 39.3844 12.846 36.9631 11.5054C36.7507 11.3884 36.4943 11.3819 36.2768 11.4896C36.0595 11.5971 35.9085 11.8046 35.8731 12.0451C35.7641 12.7855 35.2634 13.3488 34.5353 13.5518C33.8 13.7569 33.0726 13.5272 32.5864 12.9371C32.4383 12.758 32.2172 12.6533 31.9825 12.6692C31.75 12.68 31.5362 12.7984 31.4054 12.9905C30.6282 14.1268 29.2645 14.7451 27.9231 14.5645C27.5086 14.5132 27.1452 14.7942 27.091 15.1987C27.0368 15.6039 27.3207 15.9758 27.7251 16.0308C29.3381 16.2496 30.9684 15.6515 32.0909 14.4843C32.9006 15.0664 33.9285 15.2564 34.9318 14.9769C35.9077 14.7046 36.6718 14.043 37.0705 13.1668C40.3859 14.3005 43.8764 11.8243 43.8764 8.29112Z" fill="#0A175C"/>
<path d="M24.1875 29.1196V32.2089C24.1875 32.6177 24.5183 32.9485 24.9271 32.9485C25.3359 32.9485 25.6668 32.6177 25.6668 32.2089V29.1196C25.6668 28.7107 25.3359 28.3799 24.9271 28.3799C24.5184 28.3799 24.1875 28.7107 24.1875 29.1196Z" fill="#F05023"/>
<path d="M21.8348 36.195L19.1593 37.7393C18.8053 37.9437 18.6839 38.3959 18.8884 38.7498C19.0948 39.106 19.5484 39.2231 19.8989 39.0207L22.5744 37.4763C22.9284 37.272 23.0497 36.8197 22.8453 36.4658C22.6409 36.1119 22.1872 35.9906 21.8348 36.195Z" fill="#F05023"/>
<path d="M27.9418 36.2362C27.5886 36.0317 27.1357 36.1524 26.9313 36.5071C26.7269 36.861 26.8483 37.3131 27.2022 37.5176L29.877 39.0618C30.2297 39.2656 30.683 39.1452 30.8875 38.791C31.0919 38.437 30.9706 37.9849 30.6166 37.7804L27.9418 36.2362Z" fill="#F05023"/>
</svg>
