<svg width="25" height="25" viewBox="0 0 25 25" fill="none" xmlns="http://www.w3.org/2000/svg">
<path d="M24.5069 10.6639C24.4668 10.3842 24.2631 10.1557 23.9899 10.0838L22.7948 9.76931C22.5489 8.80893 22.1691 7.8936 21.6619 7.03865L22.2855 5.96943C22.4277 5.7254 22.4102 5.41996 22.2409 5.19384C21.9 4.73831 21.5209 4.3011 21.1142 3.89423C20.7084 3.48829 20.2711 3.10917 19.8145 2.76726C19.5884 2.59795 19.2829 2.58037 19.0388 2.72282L17.9697 3.34645C17.1148 2.83917 16.1995 2.45943 15.2391 2.21348L14.9247 1.0185C14.8527 0.745262 14.6243 0.54159 14.3446 0.501418C13.2165 0.339371 12.0412 0.339371 10.9131 0.501418C10.6334 0.541543 10.405 0.745215 10.3331 1.0185L10.0186 2.21348C9.0583 2.45938 8.14307 2.83912 7.28802 3.34645L6.21899 2.72282C5.97496 2.58046 5.66938 2.59804 5.44325 2.76726C4.98674 3.10912 4.54944 3.48824 4.14355 3.89423C3.73686 4.30106 3.35779 4.73826 3.01682 5.19379C2.84755 5.41992 2.83002 5.72535 2.97229 5.96938L3.59582 7.0386C3.08858 7.89365 2.70885 8.80893 2.46294 9.76926L1.26791 10.0837C0.994625 10.1556 0.790953 10.3842 0.750875 10.6639C0.669969 11.2282 0.628906 11.8054 0.628906 12.3796C0.628906 12.9538 0.669969 13.531 0.750922 14.0953C0.791 14.375 0.994672 14.6035 1.26795 14.6754L2.46299 14.9899C2.70894 15.9503 3.08868 16.8656 3.59586 17.7205L2.97233 18.7898C2.83007 19.0338 2.8476 19.3392 3.01686 19.5654C3.35783 20.0209 3.73691 20.4581 4.14364 20.865C4.54944 21.2709 4.98674 21.65 5.4433 21.9919C5.66943 22.1612 5.97491 22.1788 6.21903 22.0364L7.28807 21.4127C8.14302 21.92 9.05835 22.2998 10.0187 22.5457L10.3332 23.7407C10.4051 24.0139 10.6335 24.2176 10.9132 24.2577C11.4772 24.3388 12.0545 24.3799 12.6289 24.3799C13.2033 24.3799 13.7806 24.3388 14.3447 24.2578C14.6244 24.2177 14.8528 24.014 14.9247 23.7407L15.2392 22.5458C16.1995 22.2999 17.1147 21.9201 17.9698 21.4128L19.0388 22.0365C19.2829 22.1789 19.5885 22.1613 19.8146 21.992C20.2711 21.6502 20.7084 21.271 21.1143 20.8651C21.5209 20.4582 21.9 20.021 22.241 19.5655C22.4103 19.3394 22.4278 19.0339 22.2855 18.7899L21.662 17.7207C22.1692 16.8656 22.549 15.9504 22.7949 14.99L23.9899 14.6755C24.2632 14.6037 24.4669 14.3751 24.5069 14.0954C24.5879 13.5311 24.6289 12.9539 24.6289 12.3797C24.6289 11.8056 24.5878 11.2282 24.5069 10.6639ZM12.6289 19.8611C8.50372 19.8611 5.14766 16.5051 5.14766 12.3799C5.14766 8.25468 8.50372 4.89862 12.6289 4.89862C16.7541 4.89862 20.1102 8.25468 20.1102 12.3799C20.1102 16.5051 16.7541 19.8611 12.6289 19.8611Z" fill="#F05023"/>
<path d="M12.6297 6.30469C9.27991 6.30469 6.55469 9.02991 6.55469 12.3797C6.55469 15.7294 9.27991 18.4547 12.6297 18.4547C15.9795 18.4547 18.7047 15.7294 18.7047 12.3797C18.7047 9.02991 15.9795 6.30469 12.6297 6.30469ZM16.1394 11.3706L12.3737 15.1362C12.2419 15.2681 12.0631 15.3422 11.8766 15.3422C11.6901 15.3422 11.5112 15.2681 11.3794 15.1362L9.49657 13.2534C9.22197 12.9789 9.22197 12.5336 9.49657 12.259C9.77111 11.9845 10.2163 11.9845 10.4909 12.259L11.8766 13.6447L15.145 10.3762C15.4196 10.1017 15.8648 10.1017 16.1394 10.3762C16.4139 10.6508 16.4139 11.096 16.1394 11.3706Z" fill="#F05023"/>
</svg>
